<svg width="160" height="28" viewBox="0 0 160 28" fill="none" xmlns="http://www.w3.org/2000/svg">
<g clip-path="url(#clip0_1944_1044)">
<path d="M137.568 21.7626H132.446V6.48344L135.23 6.46775C135.92 6.46775 136.443 6.62731 136.799 6.94383C137.173 7.24204 137.362 7.65795 137.362 8.19159V8.39824L137.333 8.75399H137.393C138.439 6.99091 140.048 6.10938 142.219 6.10938C145.871 6.10938 147.697 8.01894 147.697 11.8407V21.76H144.736C143.985 21.76 143.433 21.5926 143.077 21.2551C142.742 20.8994 142.575 20.3448 142.575 19.5914V12.7902C142.575 11.4431 142.013 10.7708 140.888 10.7708C139.389 10.7708 138.382 11.5032 137.866 12.9681C137.67 13.5017 137.571 14.1766 137.571 14.9875V21.76L137.568 21.7626Z" fill="#0357EE"/>
<path fill-rule="evenodd" clip-rule="evenodd" d="M105.485 14.1583C105.485 11.7831 106.304 9.85265 107.944 8.36685C109.581 6.86274 111.624 6.10938 114.073 6.10938C116.521 6.10938 118.593 6.86274 120.23 8.36685C121.889 9.85265 122.718 11.7831 122.718 14.1583C122.718 16.5335 121.889 18.4352 120.23 19.921C118.593 21.3859 116.55 22.1183 114.101 22.1183C111.653 22.1183 109.621 21.3859 107.944 19.921C106.306 18.4352 105.485 16.5152 105.485 14.1583ZM110.638 14.1583C110.638 15.2465 110.965 16.1385 111.616 16.8317C112.289 17.504 113.115 17.8414 114.104 17.8414C115.093 17.8414 115.909 17.504 116.56 16.8317C117.233 16.1385 117.567 15.2465 117.567 14.1583C117.567 13.0701 117.233 12.1494 116.56 11.4562C115.909 10.7447 115.09 10.3863 114.104 10.3863C113.118 10.3863 112.289 10.742 111.616 11.4562C110.965 12.1494 110.638 13.0492 110.638 14.1583Z" fill="#0357EE"/>
<path fill-rule="evenodd" clip-rule="evenodd" d="M87.8855 27.7032H93.0073V22.1183C93.0073 21.7233 92.989 21.2865 92.9471 20.8104H93.0073L93.4232 21.1374C93.7397 21.3754 94.2237 21.5926 94.875 21.7914C95.5473 22.0085 96.2169 22.1183 96.8892 22.1183C98.9427 22.1183 100.64 21.3859 101.982 19.921C103.324 18.4562 103.996 16.5257 103.996 14.1296C103.996 11.7334 103.366 9.78202 102.103 8.33807C100.857 6.85227 99.2016 6.10938 97.1273 6.10938C96.1594 6.10938 95.3014 6.27679 94.5507 6.61423C93.7999 6.95168 93.2767 7.26819 92.9811 7.56378C92.7039 7.84106 92.5652 8.00848 92.5652 8.06864H92.5051V7.80183C92.5051 7.40683 92.3377 7.09032 92.0028 6.85227C91.6863 6.59592 91.1945 6.46513 90.5223 6.46513H87.807L87.8855 10.5642V27.7032ZM93.6586 16.8317C93.125 16.1202 92.8582 15.2465 92.8582 14.2185C92.8582 13.01 93.1355 12.0787 93.6874 11.4274C94.2394 10.7734 94.9613 10.4464 95.8481 10.4464C96.7349 10.4464 97.4569 10.7917 98.0088 11.4849C98.5607 12.1781 98.838 13.0884 98.838 14.2185C98.838 15.3485 98.5529 16.2196 97.98 16.8919C97.4281 17.5458 96.7166 17.8728 95.8481 17.8728C94.9797 17.8728 94.2106 17.5275 93.656 16.8343L93.6586 16.8317Z" fill="#0357EE"/>
<path fill-rule="evenodd" clip-rule="evenodd" d="M70.5215 14.0982C70.5215 11.8015 71.2435 9.89973 72.6822 8.39562C74.1418 6.87059 76.0671 6.10938 78.4554 6.10938C80.6474 6.10938 82.3634 6.80257 83.6086 8.18897C84.872 9.53613 85.5025 11.3071 85.5025 13.5044L85.3847 15.0477H75.7611C75.9389 15.9397 76.3444 16.6329 76.9748 17.1273C77.6261 17.6034 78.4057 17.8388 79.3134 17.8388C79.9045 17.8388 80.5376 17.7211 81.2072 17.4831C81.8795 17.2267 82.421 16.9494 82.8369 16.6512L83.3705 16.2353L85.4135 19.6804C85.2356 19.8582 84.8616 20.146 84.2887 20.541C83.6975 20.8967 83.2424 21.1452 82.9258 21.2839C81.6022 21.8384 80.2603 22.1157 78.9001 22.1157C76.3339 22.1157 74.2909 21.3231 72.7711 19.7405C71.2723 18.1763 70.5215 16.2955 70.5215 14.0982ZM75.9102 11.9296H80.2629C80.2629 11.4143 80.085 10.9591 79.7293 10.5642C79.3735 10.1692 78.9498 9.97036 78.4554 9.97036C77.1317 9.97036 76.2842 10.6243 75.9102 11.9296Z" fill="#0357EE"/>
<path d="M63.2754 19.5941C63.2754 20.3474 63.4428 20.902 63.7776 21.2578C64.1333 21.5952 64.6853 21.7626 65.436 21.7626H68.3972V8.63369C68.3972 7.88033 68.2193 7.33623 67.8635 7.00141C67.5287 6.64565 66.9846 6.46777 66.2339 6.46777H63.2727V19.5967L63.2754 19.5941Z" fill="#0357EE"/>
<path d="M50.7274 21.7623H45.6056V11.4271C45.6056 10.9902 45.6082 10.8307 45.6082 10.8307V6.46482H48.3888C49.0794 6.46482 49.6026 6.62438 49.9584 6.9409C50.3324 7.2391 50.5208 7.65502 50.5208 8.18866V8.39531L50.492 8.75106H50.5522C51.5985 6.98798 53.2072 6.10645 55.3784 6.10645C59.0301 6.10645 60.856 8.01601 60.856 11.8378V17.0224C60.856 17.0616 60.856 17.093 60.856 17.1191C60.856 17.1505 60.856 17.1741 60.856 17.2002C60.856 17.2473 60.856 17.2918 60.8533 17.3938C60.8167 19.0758 60.8403 21.757 60.8403 21.757H57.8948C57.1441 21.757 56.5921 21.5896 56.2364 21.2522C55.9016 20.8964 55.7341 20.3419 55.7341 19.5885V12.7873C55.7341 11.4401 55.1717 10.7679 54.0469 10.7679C52.548 10.7679 51.5409 11.5003 51.0256 12.9652C50.8294 13.4988 50.73 14.1737 50.73 14.9846V21.757L50.7274 21.7623Z" fill="#0357EE"/>
<path fill-rule="evenodd" clip-rule="evenodd" d="M26.7218 14.1583C26.7218 11.7831 27.5406 9.85265 29.1807 8.36685C30.8182 6.86274 32.8612 6.10938 35.3096 6.10938C37.7581 6.10938 39.8298 6.86274 41.4673 8.36685C43.1258 9.85265 43.955 11.7831 43.955 14.1583C43.955 16.5335 43.1258 18.4352 41.4673 19.921C39.8298 21.3859 37.7869 22.1183 35.3384 22.1183C32.89 22.1183 30.8575 21.3859 29.1807 19.921C27.5432 18.4352 26.7218 16.5152 26.7218 14.1583ZM31.875 14.1583C31.875 15.2465 32.202 16.1385 32.8534 16.8317C33.5256 17.504 34.3549 17.8414 35.341 17.8414C36.3272 17.8414 37.1486 17.504 37.7999 16.8317C38.4722 16.1385 38.807 15.2465 38.807 14.1583C38.807 13.0701 38.4722 12.1494 37.7999 11.4562C37.1486 10.7447 36.3298 10.3863 35.341 10.3863C34.3522 10.3863 33.5256 10.742 32.8534 11.4562C32.202 12.1494 31.875 13.0492 31.875 14.1583Z" fill="#0357EE"/>
<path d="M23.8392 0.524414L24.8332 12.6619L25.5159 21.7284H21.8459C20.2921 21.7284 19.6381 21.0483 19.5126 19.3716L18.9868 8.16268H18.924C18.4898 9.81066 15.0709 18.0349 15.0709 18.0349H10.5638C10.5638 18.0349 7.14224 9.68248 6.89373 8.81141L6.70801 8.16006H6.64523C6.74463 9.58831 6.11944 19.369 6.11944 19.369C5.99126 21.0405 5.36869 21.7258 3.78611 21.7258H0.113464L0.950534 11.048L1.94455 0.524414H7.97931L12.7977 11.1395H12.8605C13.2659 9.87082 17.8358 0.524414 17.8358 0.524414H23.8392Z" fill="#0357EE"/>
<path d="M151.359 10.4758V16.1182C151.359 18.237 152.238 19.8405 153.996 20.9287C155.22 21.5827 156.719 21.9096 158.495 21.9096C159.047 21.9096 159.513 21.8809 159.887 21.8207V17.3659L159.206 17.3947C157.391 17.3947 156.483 16.7407 156.483 15.4354V10.4758H159.683V6.46569H156.483V2.33789H151.508V6.46569H149.405V10.4758H151.359Z" fill="#0357EE"/>
<path d="M68.3636 2.51128C68.3636 3.05546 68.2774 3.58477 68.1168 4.08137C68.0038 4.42631 67.7273 4.70286 67.3823 4.81289C66.8887 4.97049 66.3624 5.05673 65.8182 5.05673C65.274 5.05673 64.7477 4.97049 64.254 4.81289C63.9091 4.70286 63.6325 4.42631 63.5195 4.08137C63.359 3.58477 63.2727 3.05546 63.2727 2.51128C63.2727 1.9671 63.359 1.43778 63.5195 0.941182C63.6325 0.596237 63.9091 0.319686 64.254 0.209661C64.7477 0.0520565 65.274 -0.0341797 65.8182 -0.0341797C66.3624 -0.0341797 66.8887 0.0520565 67.3823 0.209661C67.7273 0.319686 68.0038 0.596237 68.1168 0.941182C68.2774 1.43778 68.3636 1.9671 68.3636 2.51128Z" fill="#0357EE"/>
<path d="M124.73 19.5941C124.73 20.3474 124.897 20.902 125.232 21.2578C125.588 21.5952 126.14 21.7626 126.891 21.7626H129.852V8.63369C129.852 7.88033 129.674 7.33623 129.318 7.00141C128.983 6.64565 128.439 6.46777 127.688 6.46777H124.727V19.5967L124.73 19.5941Z" fill="#0357EE"/>
<path d="M129.818 2.51128C129.818 3.05546 129.732 3.58477 129.571 4.08137C129.458 4.42631 129.182 4.70286 128.837 4.81289C128.343 4.97049 127.817 5.05673 127.273 5.05673C126.729 5.05673 126.202 4.97049 125.709 4.81289C125.364 4.70286 125.087 4.42631 124.974 4.08137C124.814 3.58477 124.727 3.05546 124.727 2.51128C124.727 1.9671 124.814 1.43778 124.974 0.941182C125.087 0.596237 125.364 0.319686 125.709 0.209661C126.202 0.0520565 126.729 -0.0341797 127.273 -0.0341797C127.817 -0.0341797 128.343 0.0520565 128.837 0.209661C129.182 0.319686 129.458 0.596237 129.571 0.941182C129.732 1.43778 129.818 1.9671 129.818 2.51128Z" fill="#0357EE"/>
</g>
<defs>
<clipPath id="clip0_1944_1044">
<rect width="160" height="28" fill="white"/>
</clipPath>
</defs>
</svg>

